<svg width="30" height="30" viewBox="0 0 30 30" fill="none" xmlns="http://www.w3.org/2000/svg">
<path d="M15.075 15H2.8875" stroke="white" stroke-width="2" stroke-linecap="round" stroke-linejoin="round"/>
<path d="M7.56563 23.4375V26.25H22.5656V3.75H7.56563V6.5625H5.69063V2.8125C5.69063 2.56386 5.7894 2.3254 5.96521 2.14959C6.14103 1.97377 6.37949 1.875 6.62813 1.875H23.5031C23.7518 1.875 23.9902 1.97377 24.166 2.14959C24.3419 2.3254 24.4406 2.56386 24.4406 2.8125V27.1875C24.4406 27.4361 24.3419 27.6746 24.166 27.8504C23.9902 28.0262 23.7518 28.125 23.5031 28.125H6.62813C6.37949 28.125 6.14103 28.0262 5.96521 27.8504C5.7894 27.6746 5.69063 27.4361 5.69063 27.1875V23.4375H7.56563Z" fill="white"/>
<path d="M2.88751 15L6.6375 18.75" stroke="white" stroke-width="2" stroke-linecap="round" stroke-linejoin="round"/>
<path d="M2.88751 15L6.6375 11.25" stroke="white" stroke-width="2" stroke-linecap="round" stroke-linejoin="round"/>
<path d="M6.6375 7.58438V5.70938" stroke="white" stroke-width="2" stroke-linecap="round" stroke-linejoin="round"/>
<path d="M6.6375 24.375V22.5" stroke="white" stroke-width="2" stroke-linecap="round" stroke-linejoin="round"/>
</svg>
